<?xml version="1.0" encoding="UTF-8" standalone="no"?>
<svg
   viewBox="0 0 21 21"
   height="21"
   width="21"
   version="1.1"
   id="svg5201"
   sodipodi:docname="dota_twin_gate.svg"
   xml:space="preserve"
   inkscape:version="1.2.2 (732a01da63, 2022-12-09)"
   xmlns:inkscape="http://www.inkscape.org/namespaces/inkscape"
   xmlns:sodipodi="http://sodipodi.sourceforge.net/DTD/sodipodi-0.dtd"
   xmlns="http://www.w3.org/2000/svg"
   xmlns:svg="http://www.w3.org/2000/svg"><defs
     id="defs5205" /><sodipodi:namedview
     id="namedview5203"
     pagecolor="#ffffff"
     bordercolor="#000000"
     borderopacity="0.25"
     inkscape:showpageshadow="2"
     inkscape:pageopacity="0.0"
     inkscape:pagecheckerboard="0"
     inkscape:deskcolor="#d1d1d1"
     showgrid="false"
     inkscape:zoom="32"
     inkscape:cx="4.546875"
     inkscape:cy="5.921875"
     inkscape:window-width="2482"
     inkscape:window-height="1411"
     inkscape:window-x="69"
     inkscape:window-y="-9"
     inkscape:window-maximized="1"
     inkscape:current-layer="layer2" /><title
     id="title5193">lighthouse-15.svg</title><rect
     fill="none"
     x="0"
     y="0"
     width="21"
     height="21"
     id="rect5195" /><g
     inkscape:groupmode="layer"
     id="layer2"
     inkscape:label="Layer 1"
     style="opacity:1"><path
       style="fill:#cce6ff;stroke:#000000;stroke-width:0.6;stroke-linecap:round;stroke-linejoin:round"
       d="m 7.9812871,6.5354017 c 1.8125965,-0.947766 2.8033869,-2.2721928 3.2026359,-3.8677433 1.055277,0.014678 2.087815,0.052096 2.450776,0.7590899 l -0.722943,3.1881771 z"
       id="path7888"
       sodipodi:nodetypes="ccccc" /><path
       style="fill:#cce6ff;stroke:#000000;stroke-width:0.6;stroke-linecap:round;stroke-linejoin:round"
       d="m 3.2460126,14.11907 c -0.028589,1.009347 0.043552,1.999807 0.4482244,2.927918 h 4.2509029 c -0.4463368,-0.758051 -0.839321,-1.573011 -0.88199,-2.761641 z"
       id="path7878"
       sodipodi:nodetypes="ccccc" /><path
       style="opacity:0.80555556;fill:#cce6ff;stroke:#000000;stroke-width:0.5;stroke-linecap:round;stroke-linejoin:round;stroke-dasharray:none"
       d="M 4.625,16.921875 4.3046875,15.257812 6.3828125,15.789062 6.7265625,17 Z"
       id="path7894" /><path
       style="fill:#cce6ff;stroke:#000000;stroke-width:0.5;stroke-linecap:round;stroke-linejoin:round;stroke-dasharray:none"
       d="m 4.287286,12.377712 c 0.2422443,-0.604326 0.6305822,-1.12343 1.033808,-1.63385 L 4.4174157,10.25949 C 3.8868753,10.682872 3.5900769,11.308282 3.3449798,12.0307 Z"
       id="path7880"
       sodipodi:nodetypes="ccccc" /><path
       style="fill:#cce6ff;stroke:#000000;stroke-width:0.6;stroke-linecap:round;stroke-linejoin:round"
       d="M 2.5561871,13.246173 C 1.9076937,13.234982 1.2652287,13.374505 0.60424191,13.050979 0.62473907,12.05302 0.65579637,11.057702 1.1030723,10.166438 l 1.3302146,-0.02169 c -0.2322449,1.065032 -0.1196681,2.090656 0.1229002,3.101424 z"
       id="path7882"
       sodipodi:nodetypes="ccccc" /><path
       style="fill:#cce6ff;stroke:#000000;stroke-width:0.6;stroke-linecap:round;stroke-linejoin:round"
       d="M 2.9342746,17.053554 H 18.055501"
       id="path7884" /><path
       style="fill:#cce6ff;stroke:#000000;stroke-width:0.6;stroke-linecap:round;stroke-linejoin:round"
       d="m 11.534759,16.979512 c 1.241599,-0.502078 2.306664,-1.739492 2.12774,-3.741475 -0.174325,-1.731173 -1.649048,-2.929629 -3.321937,-2.929698 -1.6140616,0.0127 -2.0945367,0.259679 -2.8794876,0.730921 L 5.1528724,8.5574489 c 1.7102359,-1.5139297 4.1462318,-3.2249543 7.5759496,-1.973223 1.751877,0.6733733 3.004294,1.6472356 3.936222,3.1694255 1.646452,2.6543776 1.354954,5.6429656 0.49075,7.3101266 z"
       id="path7886"
       sodipodi:nodetypes="ccccccccc" /><circle
       style="fill:#cce6ff;stroke:#000000;stroke-width:0.6;stroke-linecap:round;stroke-linejoin:round"
       id="path7890"
       cx="10.33477"
       cy="13.671406"
       r="0.82302827" /><path
       style="opacity:0.805556;fill:#cce6ff;stroke:#000000;stroke-width:0.5;stroke-linecap:round;stroke-linejoin:round;stroke-dasharray:none"
       d="m 13.671875,14.421875 3.023437,2.539062"
       id="path7896" /></g></svg>
