<?xml version="1.0" encoding="UTF-8" standalone="no"?>
<svg
   viewBox="0 0 21 21"
   height="21"
   width="21"
   version="1.1"
   id="svg10"
   sodipodi:docname="dota_outpost.svg"
   xml:space="preserve"
   inkscape:version="1.2.2 (732a01da63, 2022-12-09)"
   xmlns:inkscape="http://www.inkscape.org/namespaces/inkscape"
   xmlns:sodipodi="http://sodipodi.sourceforge.net/DTD/sodipodi-0.dtd"
   xmlns="http://www.w3.org/2000/svg"
   xmlns:svg="http://www.w3.org/2000/svg"><defs
     id="defs14" /><sodipodi:namedview
     id="namedview12"
     pagecolor="#ffffff"
     bordercolor="#000000"
     borderopacity="0.25"
     inkscape:showpageshadow="2"
     inkscape:pageopacity="0.0"
     inkscape:pagecheckerboard="0"
     inkscape:deskcolor="#d1d1d1"
     showgrid="false"
     inkscape:zoom="64"
     inkscape:cx="6.2890625"
     inkscape:cy="10.023437"
     inkscape:window-width="2482"
     inkscape:window-height="1411"
     inkscape:window-x="69"
     inkscape:window-y="-9"
     inkscape:window-maximized="1"
     inkscape:current-layer="layer1" /><title
     id="title2">lighthouse-15.svg</title><rect
     fill="none"
     x="0"
     y="0"
     width="21"
     height="21"
     id="rect4" /><g
     inkscape:groupmode="layer"
     id="layer1"
     inkscape:label="Layer 1"
     style="opacity:1"><path
       style="fill:#cce6ff;stroke:#000000;stroke-width:0.6;stroke-linecap:round;stroke-linejoin:round;stroke-dasharray:none"
       d="m 5.8847533,5.1039752 c -1.4884158,4.4604989 1.10189,7.4888238 5.4148407,6.9836258 l 0.108441,-0.780778 1.590474,-1.041037 0.614502,0.433765 C 15.043495,9.3370781 15.017093,7.4819565 14.690195,5.7401648 13.96694,3.2274313 10.9366,1.7086697 7.7282571,3.1158829 L 8.5524118,5.8702945 C 9.1587583,5.481964 9.7995067,5.2100708 10.540504,5.2774815 11.637609,5.4226129 11.992097,5.9604039 12.177853,6.5537668 12.668458,8.6367038 11.394972,9.3790931 10.33808,9.4922372 8.883041,9.53741 7.9035349,8.3133105 8.1909404,6.8318082 Z"
       id="path3112"
       sodipodi:nodetypes="ccccccccccccc" /><path
       style="opacity:1;fill:#cce6ff;stroke:#000000;stroke-width:0.6;stroke-linecap:round;stroke-linejoin:round;stroke-dasharray:none"
       d="M 5.7148437,8.484375 8.1601563,7.6328125"
       id="path3212" /><path
       style="opacity:1;fill:#cce6ff;stroke:#000000;stroke-width:0.6;stroke-linecap:round;stroke-linejoin:round;stroke-dasharray:none"
       d="M 12.40625,6.46875 14.476562,5.75"
       id="path3215" /><path
       style="opacity:1;fill:#cce6ff;stroke:#000000;stroke-width:0.5;stroke-linecap:round;stroke-linejoin:round;stroke-dasharray:none"
       d="m 14.843718,3.1046407 0.876789,-0.589364 c 1.26668,1.405524 1.526199,2.8575632 1.594896,4.3136709 L 16.136398,7.1594561 C 16.126329,5.8925154 15.81301,4.5140768 14.843718,3.1046407 Z"
       id="path3223"
       sodipodi:nodetypes="ccccc" /><path
       style="opacity:1;fill:#cce6ff;stroke:#000000;stroke-width:0.5;stroke-linecap:round;stroke-linejoin:round;stroke-dasharray:none"
       d="M 4.7695312,3.3398438 C 5.2410394,3.4409922 5.4581019,3.6729985 5.5664062,3.9609375 5.3227727,4.2537623 5.1371731,4.604621 4.9765625,4.9804687 4.5199692,4.9620907 4.2784039,4.7184454 4.0351562,4.4765625 4.0527137,3.9158689 4.3120243,3.5485779 4.7695312,3.3398438 Z"
       id="path3225"
       sodipodi:nodetypes="ccccc" /><path
       style="opacity:1;fill:#cce6ff;stroke:#000000;stroke-width:0.5;stroke-linecap:round;stroke-linejoin:round;stroke-dasharray:none"
       d="m 3.3671875,6.34375 1.0898437,0.00781 C 4.2503067,7.4703462 4.4490783,8.6025283 4.8984375,9.5546876 L 3.6835938,9.5976563 C 3.317189,8.5665939 3.1006052,7.4474501 3.3671875,6.34375 Z"
       id="path3227"
       sodipodi:nodetypes="ccccc" /><path
       style="opacity:1;fill:#cce6ff;stroke:#000000;stroke-width:0.5;stroke-linecap:round;stroke-linejoin:round;stroke-dasharray:none"
       d="m 7.684262,13.158815 c 1.4475792,0.761858 4.240063,0.841189 5.734194,-0.994369 l 0.740252,0.68501 c -0.297969,0.612098 -0.860137,1.160788 -1.524699,1.684903 l 0.574525,3.176456 c 0.330705,0.333244 0.445597,0.301854 0.839689,0.30936 l -6.5794076,0.02209 c 0.4319424,-0.05971 0.7612182,-0.14705 0.8120679,-0.309357 L 8.6233882,14.959728 C 7.9409846,14.750757 7.4785965,14.437017 7.1042134,14.081369 Z"
       id="path3278"
       sodipodi:nodetypes="ccccccccccc" /><g
       id="g3297"
       style="opacity:0.5"><path
         style="opacity:1;fill:#cce6ff;stroke:#000000;stroke-width:0.5;stroke-linecap:round;stroke-linejoin:round;stroke-dasharray:none"
         d="m 8.046875,14.648437 0.8125,-1"
         id="path3280" /><path
         style="opacity:1;fill:#cce6ff;stroke:#000000;stroke-width:0.5;stroke-linecap:round;stroke-linejoin:round;stroke-dasharray:none"
         d="M 8.515625,16 10.34375,13.710937"
         id="path3284" /><path
         style="opacity:1;fill:#cce6ff;stroke:#000000;stroke-width:0.5;stroke-linecap:round;stroke-linejoin:round;stroke-dasharray:none"
         d="M 12.789062,12.929687 8.765625,17.945312"
         id="path3286" /><path
         style="opacity:1;fill:#cce6ff;stroke:#000000;stroke-width:0.5;stroke-linecap:round;stroke-linejoin:round;stroke-dasharray:none"
         d="M 10.632812,17.992187 12.71875,15.570312"
         id="path3288" /><path
         style="opacity:1;fill:#cce6ff;stroke:#000000;stroke-width:0.5;stroke-linecap:round;stroke-linejoin:round;stroke-dasharray:none"
         d="M 12.476562,17.898437 13.03125,17.125"
         id="path3290" /></g><ellipse
       style="opacity:1;fill:#cce6ff;stroke:#000000;stroke-width:0.5;stroke-linecap:round;stroke-linejoin:round;stroke-dasharray:none"
       id="path3351"
       cx="10.144531"
       cy="7.3554688"
       rx="0.75390625"
       ry="0.76953125" /></g></svg>
